<?xml version="1.0" standalone="no"?><!DOCTYPE svg PUBLIC "-//W3C//DTD SVG 1.1//EN" "http://www.w3.org/Graphics/SVG/1.1/DTD/svg11.dtd"><svg t="1759295562222" class="icon" viewBox="0 0 1024 1024" version="1.1" xmlns="http://www.w3.org/2000/svg" p-id="18019" xmlns:xlink="http://www.w3.org/1999/xlink" width="200" height="200"><path d="M187.605333 194.304l3.114667-3.584a32 32 0 0 1 41.642667-3.114667l3.584 3.114667L512 466.730667l276.053333-276.053334a32 32 0 1 1 45.226667 45.269334L557.269333 512l276.053334 276.053333a32 32 0 0 1 3.072 41.642667l-3.114667 3.584a32 32 0 0 1-41.642667 3.114667l-3.584-3.114667L512 557.269333l-276.053333 276.053334a32 32 0 0 1-45.226667-45.269334L466.730667 512l-276.053334-276.053333a32 32 0 0 1-3.072-41.642667l3.114667-3.584-3.114667 3.584z" p-id="18020"></path></svg>