<?xml version="1.0" standalone="no"?><!DOCTYPE svg PUBLIC "-//W3C//DTD SVG 1.1//EN" "http://www.w3.org/Graphics/SVG/1.1/DTD/svg11.dtd"><svg t="1759303502102" class="icon" viewBox="0 0 1024 1024" version="1.1" xmlns="http://www.w3.org/2000/svg" p-id="21262" xmlns:xlink="http://www.w3.org/1999/xlink" width="200" height="200"><path d="M722.53 729.32L559.54 518.79v-20.37l190.15-190.16H613.87l-156.2 162.99 13.58-169.78-105.26 3.4-44.15 417.66 115.31 2.09 13.58-190.15 122.39 194.85z" fill="#4D4D4D" p-id="21263"></path><path d="M512 63.78C264.45 63.78 63.78 264.45 63.78 512S264.45 960.22 512 960.22 960.22 759.55 960.22 512 759.55 63.78 512 63.78z m0 835.32c-213.79 0-387.1-173.31-387.1-387.1S298.21 124.9 512 124.9 899.1 298.21 899.1 512 725.79 899.1 512 899.1z" fill="#4D4D4D" p-id="21264"></path></svg>